<svg width="28" height="24" viewBox="0 0 28 24" fill="none" xmlns="http://www.w3.org/2000/svg">
<g id="Group 48421">
<g id="Ellipse 163" filter="url(#filter0_ii_3824_12755)">
<circle cx="14" cy="12" r="10" fill="url(#paint0_linear_3824_12755)"/>
</g>
<g id="Subtract" filter="url(#filter1_df_3824_12755)">
<path fill-rule="evenodd" clip-rule="evenodd" d="M22.9863 12.5C22.9954 12.3345 23 12.1678 23 12C23 7.02944 18.9706 3 14 3C9.02944 3 5 7.02944 5 12C5 12.1678 5.00459 12.3345 5.01365 12.5C5.2731 7.76201 9.19722 4 14 4C18.8028 4 22.7269 7.76201 22.9863 12.5Z" fill="#EBFFF3"/>
</g>
<g id="Subtract_2" filter="url(#filter2_f_3824_12755)">
<path fill-rule="evenodd" clip-rule="evenodd" d="M22.9863 12C22.9954 12.1655 23 12.3322 23 12.5C23 17.4706 18.9706 21.5 14 21.5C9.02944 21.5 5 17.4706 5 12.5C5 12.3322 5.00459 12.1655 5.01365 12C5.2731 16.738 9.19722 20.5 14 20.5C18.8028 20.5 22.7269 16.738 22.9863 12Z" fill="black" fill-opacity="0.21"/>
</g>
</g>
<defs>
<filter id="filter0_ii_3824_12755" x="4" y="0" width="20" height="22" filterUnits="userSpaceOnUse" color-interpolation-filters="sRGB">
<feFlood flood-opacity="0" result="BackgroundImageFix"/>
<feBlend mode="normal" in="SourceGraphic" in2="BackgroundImageFix" result="shape"/>
<feColorMatrix in="SourceAlpha" type="matrix" values="0 0 0 0 0 0 0 0 0 0 0 0 0 0 0 0 0 0 127 0" result="hardAlpha"/>
<feOffset/>
<feGaussianBlur stdDeviation="2.5"/>
<feComposite in2="hardAlpha" operator="arithmetic" k2="-1" k3="1"/>
<feColorMatrix type="matrix" values="0 0 0 0 0 0 0 0 0 0 0 0 0 0 0 0 0 0 0.5 0"/>
<feBlend mode="normal" in2="shape" result="effect1_innerShadow_3824_12755"/>
<feColorMatrix in="SourceAlpha" type="matrix" values="0 0 0 0 0 0 0 0 0 0 0 0 0 0 0 0 0 0 127 0" result="hardAlpha"/>
<feOffset dy="-2"/>
<feGaussianBlur stdDeviation="2"/>
<feComposite in2="hardAlpha" operator="arithmetic" k2="-1" k3="1"/>
<feColorMatrix type="matrix" values="0 0 0 0 0 0 0 0 0 0 0 0 0 0 0 0 0 0 0.3 0"/>
<feBlend mode="normal" in2="effect1_innerShadow_3824_12755" result="effect2_innerShadow_3824_12755"/>
</filter>
<filter id="filter1_df_3824_12755" x="0" y="0" width="28" height="19.5" filterUnits="userSpaceOnUse" color-interpolation-filters="sRGB">
<feFlood flood-opacity="0" result="BackgroundImageFix"/>
<feColorMatrix in="SourceAlpha" type="matrix" values="0 0 0 0 0 0 0 0 0 0 0 0 0 0 0 0 0 0 127 0" result="hardAlpha"/>
<feOffset dy="2"/>
<feGaussianBlur stdDeviation="2.5"/>
<feComposite in2="hardAlpha" operator="out"/>
<feColorMatrix type="matrix" values="0 0 0 0 0 0 0 0 0 0 0 0 0 0 0 0 0 0 0.5 0"/>
<feBlend mode="normal" in2="BackgroundImageFix" result="effect1_dropShadow_3824_12755"/>
<feBlend mode="normal" in="SourceGraphic" in2="effect1_dropShadow_3824_12755" result="shape"/>
<feGaussianBlur stdDeviation="0.5" result="effect2_foregroundBlur_3824_12755"/>
</filter>
<filter id="filter2_f_3824_12755" x="3" y="10" width="22" height="13.5" filterUnits="userSpaceOnUse" color-interpolation-filters="sRGB">
<feFlood flood-opacity="0" result="BackgroundImageFix"/>
<feBlend mode="normal" in="SourceGraphic" in2="BackgroundImageFix" result="shape"/>
<feGaussianBlur stdDeviation="1" result="effect1_foregroundBlur_3824_12755"/>
</filter>
<linearGradient id="paint0_linear_3824_12755" x1="14" y1="2" x2="14" y2="22" gradientUnits="userSpaceOnUse">
<stop stop-color="#48FF65"/>
<stop offset="1" stop-color="#008014"/>
</linearGradient>
</defs>
</svg>
